<?xml version="1.0" encoding="utf-8"?>
<!-- Generator: Adobe Illustrator 18.1.1, SVG Export Plug-In . SVG Version: 6.00 Build 0)  -->
<svg version="1.1" xmlns="http://www.w3.org/2000/svg" xmlns:xlink="http://www.w3.org/1999/xlink" x="0px" y="0px"
	 viewBox="0 0 100 100" enable-background="new 0 0 100 100" xml:space="preserve">
<g id="hg">
	<path fill="#E6E6E6" d="M50,100L50,100C22.4,100,0,77.6,0,50v0C0,22.4,22.4,0,50,0h0c27.6,0,50,22.4,50,50v0
		C100,77.6,77.6,100,50,100z"/>
</g>
<g id="esl" display="none">
	<rect x="50.3" y="51" display="inline" fill-rule="evenodd" clip-rule="evenodd" fill="#FFFFFF" width="33.2" height="23"/>
	<path display="inline" fill="#464646" d="M82.5,51.9v21.2H50.7V51.9H82.5 M82.5,49.3H50.7c-1.5,0-2.6,1.2-2.6,2.6v21.2
		c0,1.5,1.2,2.6,2.6,2.6h31.8c1.5,0,2.6-1.2,2.6-2.6V51.9C85.1,50.5,83.9,49.3,82.5,49.3L82.5,49.3z"/>
	<g display="inline">
		<path fill-rule="evenodd" clip-rule="evenodd" fill="#FFFFFF" d="M47,51.4c0-1.6,1.3-3.4,2.9-3.4H63V28H19v29h28V51.4z"/>
	</g>
	<g display="inline">
		<path fill="#464646" d="M47,57H19V28h44v20h3V27.6c0-2-1.2-3.6-3.2-3.6H18.4c-2,0-3.4,1.5-3.4,3.6v29.5c0,2,1.4,3.9,3.4,3.9H47V57
			z"/>
	</g>
	<g display="inline">
		<path fill="#FF4000" d="M59.4,70.3H54v-1.1l2.5-2.7c0.2-0.2,0.4-0.4,0.5-0.6s0.2-0.3,0.3-0.5s0.1-0.3,0.2-0.4s0.1-0.2,0.1-0.4
			c0-0.4-0.1-0.6-0.3-0.8c-0.2-0.2-0.4-0.3-0.8-0.3c-0.2,0-0.3,0-0.5,0.1c-0.1,0.1-0.3,0.2-0.4,0.3c-0.1,0.1-0.2,0.3-0.2,0.4
			c-0.1,0.2-0.1,0.3-0.1,0.5h-1.6c0-0.4,0.1-0.7,0.2-1c0.1-0.3,0.3-0.6,0.5-0.8c0.2-0.2,0.5-0.4,0.9-0.6c0.3-0.1,0.7-0.2,1.1-0.2
			c0.4,0,0.8,0.1,1.1,0.2s0.6,0.2,0.8,0.4s0.4,0.4,0.5,0.7s0.2,0.6,0.2,0.9c0,0.3,0,0.5-0.1,0.8c-0.1,0.2-0.2,0.5-0.4,0.7
			c-0.2,0.2-0.3,0.5-0.5,0.7s-0.5,0.5-0.7,0.8L56,69h3.4V70.3z"/>
		<path fill="#FF4000" d="M61.9,70c0,0.2,0,0.4-0.1,0.6c-0.1,0.2-0.1,0.4-0.2,0.6c-0.1,0.2-0.2,0.4-0.3,0.6s-0.3,0.3-0.4,0.5
			L60,71.8c0.1-0.1,0.1-0.2,0.2-0.4c0.1-0.1,0.1-0.3,0.2-0.4c0.1-0.1,0.1-0.3,0.1-0.4c0-0.2,0.1-0.3,0.1-0.5v-1.1h1.3L61.9,70z"/>
		<path fill="#FF4000" d="M64.3,69c0.4,0,0.7,0,1-0.1c0.3-0.1,0.5-0.2,0.7-0.4c0.2-0.2,0.4-0.4,0.5-0.6c0.1-0.2,0.2-0.5,0.2-0.8
			c-0.2,0.2-0.4,0.3-0.6,0.4c-0.2,0.1-0.5,0.2-0.8,0.2c-0.4,0-0.7-0.1-1-0.2c-0.3-0.1-0.5-0.3-0.7-0.6s-0.3-0.5-0.4-0.8
			c-0.1-0.3-0.1-0.7-0.1-1.1c0-0.4,0.1-0.7,0.2-1.1c0.1-0.3,0.3-0.6,0.5-0.9c0.2-0.3,0.5-0.5,0.8-0.6c0.3-0.1,0.7-0.2,1.1-0.2
			c0.4,0,0.8,0.1,1.1,0.2s0.6,0.4,0.8,0.7c0.2,0.3,0.4,0.6,0.5,1c0.1,0.4,0.2,0.8,0.2,1.3V66c0,0.6-0.1,1.2-0.2,1.8
			c-0.2,0.5-0.4,1-0.7,1.4c-0.3,0.4-0.8,0.7-1.3,0.9c-0.5,0.2-1.1,0.3-1.8,0.3h-0.1V69H64.3z M65.7,66.5c0.3,0,0.5-0.1,0.7-0.2
			c0.2-0.1,0.3-0.3,0.4-0.5v-0.6c0-0.3,0-0.5-0.1-0.7c-0.1-0.2-0.1-0.4-0.2-0.5s-0.2-0.2-0.4-0.3c-0.1-0.1-0.3-0.1-0.4-0.1
			c-0.2,0-0.3,0-0.5,0.1s-0.2,0.2-0.3,0.3c-0.1,0.1-0.2,0.3-0.2,0.5c0,0.2-0.1,0.4-0.1,0.6c0,0.2,0,0.4,0.1,0.6s0.1,0.3,0.2,0.5
			c0.1,0.1,0.2,0.2,0.3,0.3C65.3,66.5,65.5,66.5,65.7,66.5z"/>
		<path fill="#FF4000" d="M70.7,69c0.4,0,0.7,0,1-0.1c0.3-0.1,0.5-0.2,0.7-0.4c0.2-0.2,0.4-0.4,0.5-0.6c0.1-0.2,0.2-0.5,0.2-0.8
			c-0.2,0.2-0.4,0.3-0.6,0.4c-0.2,0.1-0.5,0.2-0.8,0.2c-0.4,0-0.7-0.1-1-0.2c-0.3-0.1-0.5-0.3-0.7-0.6c-0.2-0.2-0.3-0.5-0.4-0.8
			c-0.1-0.3-0.1-0.7-0.1-1.1c0-0.4,0.1-0.7,0.2-1.1s0.3-0.6,0.5-0.9c0.2-0.3,0.5-0.5,0.8-0.6c0.3-0.1,0.7-0.2,1.1-0.2
			c0.4,0,0.8,0.1,1.1,0.2s0.6,0.4,0.8,0.7c0.2,0.3,0.4,0.6,0.5,1c0.1,0.4,0.2,0.8,0.2,1.3V66c0,0.6-0.1,1.2-0.2,1.8
			c-0.2,0.5-0.4,1-0.7,1.4c-0.3,0.4-0.8,0.7-1.3,0.9c-0.5,0.2-1.1,0.3-1.8,0.3h-0.1V69H70.7z M72.1,66.5c0.3,0,0.5-0.1,0.7-0.2
			c0.2-0.1,0.3-0.3,0.4-0.5v-0.6c0-0.3,0-0.5-0.1-0.7c-0.1-0.2-0.1-0.4-0.2-0.5s-0.2-0.2-0.4-0.3c-0.1-0.1-0.3-0.1-0.4-0.1
			c-0.2,0-0.3,0-0.5,0.1s-0.2,0.2-0.3,0.3c-0.1,0.1-0.2,0.3-0.2,0.5c0,0.2-0.1,0.4-0.1,0.6c0,0.2,0,0.4,0.1,0.6s0.1,0.3,0.2,0.5
			c0.1,0.1,0.2,0.2,0.3,0.3C71.7,66.5,71.9,66.5,72.1,66.5z"/>
		<path fill="#FF4000" d="M80.1,67.5h-1.8c0,0.3,0.1,0.6,0.1,0.8c0.1,0.2,0.2,0.4,0.3,0.5c0.1,0.1,0.3,0.2,0.5,0.3
			c0.2,0.1,0.4,0.1,0.7,0.1c0.2,0,0.4,0,0.5,0c0.2,0,0.3-0.1,0.5-0.1l0.2,1.3c-0.2,0.1-0.4,0.1-0.7,0.1s-0.5,0-0.7,0
			c-0.4,0-0.9-0.1-1.2-0.2c-0.4-0.1-0.7-0.3-1-0.5c-0.3-0.2-0.5-0.5-0.7-0.9c-0.2-0.4-0.2-0.8-0.3-1.3h-0.9v-0.8h0.9V66h-0.9v-0.8
			h0.9c0-0.5,0.1-0.9,0.3-1.2c0.2-0.4,0.4-0.7,0.7-0.9c0.3-0.2,0.6-0.4,1-0.5c0.4-0.1,0.8-0.2,1.3-0.2c0.2,0,0.4,0,0.6,0
			c0.2,0,0.4,0.1,0.6,0.1L81,63.8c-0.1-0.1-0.3-0.1-0.5-0.1c-0.2,0-0.3,0-0.5,0c-0.2,0-0.5,0-0.7,0.1c-0.2,0.1-0.4,0.2-0.5,0.3
			s-0.3,0.3-0.3,0.5c-0.1,0.2-0.1,0.4-0.2,0.7h1.8V66h-1.8v0.7h1.8V67.5z"/>
	</g>
	<circle display="inline" fill="#FF4000" cx="39.6" cy="42.4" r="9"/>
	<g display="inline">
		<path fill="#FFFFFF" d="M35,38.9c0-0.6,0.2-1,0.5-1.4c0.4-0.4,0.9-0.6,1.5-0.6s1.1,0.2,1.5,0.6c0.4,0.4,0.5,0.9,0.5,1.4v0.5
			c0,0.6-0.2,1-0.5,1.4c-0.4,0.4-0.8,0.6-1.5,0.6c-0.6,0-1.1-0.2-1.5-0.6C35.2,40.5,35,40,35,39.4V38.9z M36,39.4
			c0,0.3,0.1,0.6,0.3,0.8s0.4,0.3,0.8,0.3c0.3,0,0.6-0.1,0.8-0.3c0.2-0.2,0.3-0.5,0.3-0.8v-0.5c0-0.3-0.1-0.6-0.3-0.8
			c-0.2-0.2-0.4-0.4-0.8-0.4c-0.3,0-0.6,0.1-0.8,0.4c-0.2,0.2-0.3,0.5-0.3,0.8V39.4z M37.4,46.1l-0.7-0.4l4.8-7.6l0.7,0.4L37.4,46.1
			z M39.7,44.4c0-0.6,0.2-1,0.5-1.4c0.4-0.4,0.9-0.6,1.5-0.6c0.6,0,1.1,0.2,1.5,0.6s0.6,0.9,0.6,1.4v0.5c0,0.6-0.2,1-0.5,1.4
			c-0.4,0.4-0.9,0.6-1.5,0.6c-0.6,0-1.1-0.2-1.5-0.6s-0.6-0.9-0.6-1.4V44.4z M40.7,44.9c0,0.3,0.1,0.6,0.3,0.8s0.4,0.3,0.8,0.3
			c0.3,0,0.6-0.1,0.8-0.3c0.2-0.2,0.3-0.5,0.3-0.8v-0.5c0-0.3-0.1-0.6-0.3-0.8c-0.2-0.2-0.4-0.3-0.8-0.3c-0.3,0-0.6,0.1-0.8,0.3
			s-0.3,0.5-0.3,0.8V44.9z"/>
	</g>
</g>
<g id="couponing" display="none">
	<g display="inline">
		<polygon fill="#464646" points="18,42 21,42 21,40 18.8,40 15,40 15,50 18,50 		"/>
		<rect x="15" y="52" fill="#464646" width="3" height="3"/>
		<path fill="#464646" d="M21.8,37h3h3h3h3H37V16h-3.1h-3h-3h-3h-3h-3H15v21h3.8H21.8z M18,19h3.8h3h3h3H34v16h-3.2h-3h-3h-3H18V19z
			"/>
		<polygon fill="#464646" points="24.8,45 27.8,45 31,45 31,42 26,42 26,40 23,40 23,42 21,42 21,45 		"/>
		<polygon fill="#464646" points="27.8,32 31,32 31,22 27.8,22 24.8,22 21,22 21,32 24.8,32 		"/>
		<polygon fill="#464646" points="24.8,64 21,64 21,74 24.8,74 27.8,74 31,74 31,64 27.8,64 		"/>
		<polygon fill="#464646" points="27.8,50 24.8,50 21,50 21,53 23,53 23,55 26,55 26,53 31,53 31,50 		"/>
		<path fill="#464646" d="M30.8,57h-3h-3h-3h-3H15v23h3.8h3h3h3h3h3H37V57h-3.1H30.8z M34,78h-3.2h-3h-3h-3H18V62h3.8h3h3h3H34V78z"
			/>
		<polygon fill="#464646" points="34,40 34,42 36.9,42 40,42 40,40 36.9,40 		"/>
		<rect x="33" y="45" fill="#464646" width="4" height="5"/>
		<polygon fill="#464646" points="36.9,53 33.9,53 31,53 31,55 33.9,55 36.9,55 40,55 40,53 		"/>
		<rect x="40" y="55" fill="#464646" width="2" height="7"/>
		<polygon fill="#464646" points="40,74 40,80 42,80 42,78 44,78 44,74 42.9,74 		"/>
		<polygon fill="#464646" points="44,16 42,16 42,19 40,19 40,24 42,24 42,29 44,29 		"/>
		<polygon fill="#464646" points="45.9,53 49,53 53,53 53,50 49,50 44,50 44,42 51,42 51,40 52,40 55,40 55,29 53,29 53,32 51,32 
			51,35 53,35 53,37 51,37 51,35 44,35 44,37 42,37 42,29 40,29 40,40 42,40 42,45 40,45 40,53 42.9,53 		"/>
		<rect x="42" y="62" fill="#464646" width="4" height="2"/>
		<rect x="50" y="25" fill="#464646" width="3" height="3"/>
		<polygon fill="#464646" points="53,57 53,55 49,55 44,55 44,62 51,62 51,57 		"/>
		<polygon fill="#464646" points="51,78 51,80 52,80 55,80 55,78 52,78 		"/>
		<polygon fill="#464646" points="55,19 55,16 52,16 51,16 51,22 53,22 53,19 		"/>
		<rect x="53" y="22" fill="#464646" width="2" height="3"/>
		<rect x="53" y="52" fill="#464646" width="2" height="3"/>
		<polygon fill="#464646" points="55,64 59,64 59,57 55,57 55,62 52,62 51,62 51,69 45.9,69 42.9,69 40,69 40,71 42.9,71 44,71 
			44,74 51,74 51,71 53,71 53,64 		"/>
		<rect x="53" y="71" fill="#464646" width="2" height="3"/>
		<polygon fill="#464646" points="59,50 59,45 55,45 53,45 53,50 55,50 		"/>
		<polygon fill="#464646" points="59,53 59,55 61,55 61,57 63,57 63,53 61,53 		"/>
		<polygon fill="#464646" points="58,74 55,74 55,78 58,78 61,78 63,78 63,74 61,74 		"/>
		<polygon fill="#464646" points="63,45 63,42 66,42 66,40 64.1,40 61,40 59,40 59,45 61,45 		"/>
		<polygon fill="#464646" points="61,64 59,64 59,69 61,69 61,71 63,71 63,74 66,74 66,69 71,69 71,64 66,64 66,62 70.1,62 73.1,62 
			77,62 77,57 73.1,57 70.1,57 67.1,57 63,57 63,64 		"/>
		<polygon fill="#464646" points="63,50 63,53 66,53 66,55 71,55 71,50 67.1,50 		"/>
		<polygon fill="#464646" points="67.1,22 63,22 63,32 67.1,32 70.1,32 74,32 74,22 70.1,22 		"/>
		<rect x="68" y="74.2" fill="#464646" width="2" height="2"/>
		<rect x="70" y="45" fill="#464646" width="3" height="5"/>
		<rect x="70" y="71" fill="#464646" width="3" height="3"/>
		<polygon fill="#464646" points="73.1,40 71,40 71,42 73.1,42 77,42 77,40 		"/>
		<polygon fill="#464646" points="74,69 74,71 77,71 77,74 79,74 79,62 77,62 77,69 		"/>
		<rect x="73" y="76" fill="#464646" width="4" height="4"/>
		<path fill="#464646" d="M76.1,16h-3h-3h-3h-3h-3h-2v21h2h3h3h3h3h3H79V16H76.1z M77,35h-3.9h-3h-3h-3H61V19h3.1h3h3h3H77V35z"/>
		<polygon fill="#464646" points="77,50 74,50 74,53 76.1,53 79,53 79,42 77,42 		"/>
		<rect x="77" y="55" fill="#464646" width="2" height="5"/>
	</g>
	<circle display="inline" fill="#FF4000" cx="70" cy="68.4" r="15.5"/>
	<g display="inline">
		<path fill="#FFFFFF" d="M63.4,64c0-0.8,0.3-1.5,0.8-2.1c0.5-0.6,1.2-0.9,2.1-0.9s1.6,0.3,2.1,0.8c0.5,0.6,0.8,1.3,0.8,2.1v0.8
			c0,0.8-0.3,1.5-0.8,2.1c-0.5,0.6-1.2,0.8-2.1,0.8c-0.9,0-1.6-0.3-2.2-0.8c-0.5-0.6-0.8-1.3-0.8-2.1V64z M64.8,64.8
			c0,0.5,0.1,0.9,0.4,1.2c0.3,0.3,0.6,0.5,1.1,0.5c0.5,0,0.8-0.2,1.1-0.5c0.3-0.3,0.4-0.7,0.4-1.2V64c0-0.5-0.1-0.9-0.4-1.2
			c-0.3-0.3-0.6-0.5-1.1-0.5c-0.5,0-0.9,0.2-1.1,0.5c-0.3,0.3-0.4,0.8-0.4,1.2V64.8z M66.9,74.4l-1.1-0.7l7-11.1l1.1,0.7L66.9,74.4z
			 M70.3,72c0-0.8,0.3-1.5,0.8-2.1s1.2-0.8,2.1-0.8c0.9,0,1.6,0.3,2.1,0.8c0.5,0.6,0.8,1.3,0.8,2.1v0.8c0,0.8-0.3,1.5-0.8,2.1
			c-0.5,0.6-1.2,0.8-2.1,0.8c-0.9,0-1.6-0.3-2.2-0.8c-0.5-0.6-0.8-1.3-0.8-2.1V72z M71.7,72.8c0,0.5,0.1,0.9,0.4,1.2
			c0.3,0.3,0.6,0.5,1.1,0.5c0.5,0,0.8-0.2,1.1-0.5c0.3-0.3,0.4-0.7,0.4-1.2V72c0-0.5-0.1-0.9-0.4-1.2c-0.3-0.3-0.6-0.5-1.1-0.5
			c-0.5,0-0.9,0.2-1.1,0.5c-0.3,0.3-0.4,0.7-0.4,1.2V72.8z"/>
	</g>
</g>
<g id="analytics" display="none">
	<rect x="18.5" y="25.8" display="inline" fill="#FFFFFF" width="64.5" height="36.7"/>
	<path display="inline" fill="#464646" d="M84.2,67.5H16.5c-0.5,0-0.9-0.4-0.9-0.9v-42c0-0.5,0.4-0.9,0.9-0.9h67.6
		c0.5,0,0.9,0.4,0.9,0.9v42C85,67.1,84.6,67.5,84.2,67.5z M20.1,61h60.5c0.5,0,0.9-0.4,0.9-0.9v-32c0-0.5-0.4-0.9-0.9-0.9H20.1
		c-0.5,0-0.9,0.4-0.9,0.9v32C19.2,60.6,19.6,61,20.1,61z"/>
	<path display="inline" fill="#464646" d="M59.9,69.5h-19c-0.9,0-1.9,0.4-2.5,1.1l-3.7,3.8c-0.5,0.8,0.1,1.9,1.1,1.9H65
		c1,0,1.6-1,1.1-1.9l-3.7-3.8C61.7,69.9,60.8,69.5,59.9,69.5z"/>
	<rect x="34.8" y="46.2" display="inline" fill="#333333" width="4.3" height="8.1"/>
	<rect x="43.9" y="42.4" display="inline" fill="#333333" width="4.3" height="11.8"/>
	<rect x="52.5" y="46.2" display="inline" fill="#333333" width="4.3" height="8.1"/>
	<rect x="60.6" y="42.4" display="inline" fill="#333333" width="4.3" height="11.8"/>
	<polygon display="inline" fill="#FF4000" points="46.6,37.9 55.2,43.4 67.2,34.7 66,33 55.2,40.8 46.7,35.4 31.6,43.1 32.6,45 	"/>
	<polygon display="inline" fill="#FF4000" points="64.4,32.3 68.4,32.2 67.9,36.2 	"/>
</g>
<g id="voip" display="none">
	<g display="inline">
		<path fill="#464646" d="M25.4,54.8l0.4,1.7h0.1l0.4-1.6L32.1,37h4.3l-8.6,24H24l-8.6-24h4.3L25.4,54.8z"/>
		<path fill="#464646" d="M37.1,52c0-2.6,0.7-4.8,2.2-6.5c1.5-1.7,3.5-2.6,6-2.6c2.6,0,4.6,0.9,6,2.6c1.5,1.7,2.2,3.9,2.2,6.5v0.3
			c0,2.7-0.7,4.9-2.2,6.6c-1.5,1.7-3.4,2.5-6,2.5c-2.5,0-4.6-0.8-6-2.5c-1.5-1.7-2.2-3.9-2.2-6.5V52z M41.1,52.3
			c0,1.7,0.3,3.1,1,4.2c0.7,1.1,1.7,1.6,3.2,1.6c1.4,0,2.4-0.5,3.1-1.6c0.7-1.1,1.1-2.5,1.1-4.2v-0.3c0-1.7-0.4-3.1-1.1-4.2
			c-0.7-1.1-1.7-1.7-3.2-1.7c-1.4,0-2.4,0.6-3.1,1.7c-0.7,1.1-1,2.5-1,4.2V52.3z"/>
		<path fill="#464646" d="M61.7,61h-4V37h4V61z"/>
		<path fill="#464646" d="M71.2,51.9V61h-4V37h9.4c2.6,0,4.7,0.7,6.2,2.1c1.5,1.4,2.2,3.2,2.2,5.4c0,2.3-0.8,4.1-2.2,5.4
			c-1.5,1.4-3.6,2-6.2,2H71.2z M71.2,48.7h5.4c1.5,0,2.6-0.4,3.3-1.2c0.7-0.8,1.1-1.8,1.1-3s-0.4-2.2-1.1-3
			c-0.7-0.8-1.9-1.2-3.3-1.2h-5.4V48.7z"/>
	</g>
</g>
<g id="scaleable_platform" display="none">
	<circle display="inline" fill="#FF4000" cx="68.1" cy="60.8" r="11.2"/>
	
		<path display="inline" fill-rule="evenodd" clip-rule="evenodd" fill="none" stroke="#464646" stroke-width="2.3465" stroke-linecap="round" stroke-miterlimit="10" d="
		M81.4,59.4c2.6-2,4.2-5.1,4.2-8.6c0-5.9-4.7-10.8-10.6-10.8c-1.7,0-3.3,0.4-4.7,1.1c-1.7-7.4-8.2-12.9-15.9-12.9
		c-7.7,0-14.2,5.4-15.9,12.8c-0.9-1.8-2.8-3.1-5-3.1c-3.1,0-5.6,2.5-5.6,5.7c0,0.1,0,0.1,0,0.2c-1.3-0.7-2.7-1.1-4.3-1.1
		c-5.1,0-9.4,4.2-9.4,9.4c0,9,8.7,10,8.7,10h31.7"/>
	<g display="inline">
		<polygon fill="#FFFFFF" points="71.7,60 68.8,60 68.8,57.1 67.7,57.1 67.7,60 64.7,60 64.7,61.2 67.7,61.2 67.7,64.1 68.8,64.1 
			68.8,61.2 71.7,61.2 		"/>
		<path fill="#FFFFFF" d="M72.9,61.3v0.9c0,0.1,0.1,0.2,0.2,0.3c0,0,0.1,0,0.1,0c0.1,0,0.1,0,0.2-0.1l2.3-1.6
			c0.1-0.1,0.1-0.2,0.1-0.2c0-0.1,0-0.2-0.1-0.2l-2.3-1.6c-0.1-0.1-0.2-0.1-0.3,0c-0.1,0.1-0.2,0.2-0.2,0.3v0.9"/>
		<path fill="#FFFFFF" d="M67.5,65.3h-0.9c-0.1,0-0.2,0.1-0.3,0.2c-0.1,0.1,0,0.2,0,0.3L68,68c0.1,0.1,0.2,0.1,0.2,0.1
			c0.1,0,0.2,0,0.2-0.1l1.6-2.3c0.1-0.1,0.1-0.2,0-0.3c-0.1-0.1-0.2-0.2-0.3-0.2H69"/>
		<path fill="#FFFFFF" d="M63.5,59.9V59c0-0.1-0.1-0.2-0.2-0.3c-0.1-0.1-0.2,0-0.3,0l-2.3,1.6c-0.1,0.1-0.1,0.1-0.1,0.2
			c0,0.1,0,0.2,0.1,0.2l2.3,1.6c0.1,0,0.1,0.1,0.2,0.1c0,0,0.1,0,0.1,0c0.1-0.1,0.2-0.2,0.2-0.3v-0.9"/>
		<path fill="#FFFFFF" d="M69,55.9h0.9c0.1,0,0.2-0.1,0.3-0.2c0.1-0.1,0-0.2,0-0.3l-1.6-2.3c-0.1-0.1-0.2-0.1-0.2-0.1
			c-0.1,0-0.2,0-0.2,0.1l-1.6,2.3c-0.1,0.1-0.1,0.2,0,0.3c0.1,0.1,0.2,0.2,0.3,0.2h0.9"/>
	</g>
</g>
<g id="indoor_navigation" display="none">
	<path display="inline" fill="#FF4000" d="M75.2,32.7c-6,0-11,4.9-11,11c0,5.7,8.2,11.8,10.6,19.4c0.1,0.2,0.2,0.3,0.4,0.3
		c0.2,0,0.3-0.1,0.4-0.3c2.3-7.8,10.6-13.7,10.6-19.4C86.2,37.6,81.3,32.7,75.2,32.7L75.2,32.7z M75.2,52"/>
	<path display="inline" fill="#464646" d="M21.8,58.7h-4.4l-0.9,2.7H14l4.3-12.5h2.6l4.3,12.5h-2.5L21.8,58.7z M18,56.7h3.2
		l-1.6-4.9h-0.1L18,56.7z"/>
	<path display="inline" fill="#FFFFFF" d="M72,48.1v-9.9h3.4c1.2,0,2.1,0.2,2.7,0.7c0.7,0.5,1,1.1,1,2c0,0.5-0.1,0.9-0.4,1.2
		c-0.2,0.4-0.6,0.6-1.1,0.8c0.6,0.1,1,0.4,1.3,0.8c0.3,0.4,0.4,0.9,0.4,1.5c0,1-0.3,1.7-0.9,2.2s-1.5,0.7-2.7,0.7H72z M74,42.3h1.4
		c0.5,0,0.9-0.1,1.2-0.3c0.3-0.2,0.4-0.5,0.4-1c0-0.5-0.1-0.8-0.4-1c-0.3-0.2-0.7-0.3-1.3-0.3H74V42.3z M74,43.7v2.9h1.8
		c0.5,0,0.9-0.1,1.2-0.3c0.3-0.2,0.4-0.6,0.4-1c0-0.5-0.1-0.9-0.4-1.1c-0.2-0.3-0.6-0.4-1.1-0.4H74z"/>
	<path display="inline" fill="#464646" d="M61.8,67.3c-0.1,0-0.2,0-0.2,0c-1.1-0.3-2.3-0.7-3.3-1.2c-0.6-0.3-0.8-0.9-0.5-1.5
		c0.3-0.6,0.9-0.8,1.5-0.5c0.9,0.4,1.9,0.8,2.9,1c0.6,0.1,1,0.7,0.8,1.3C62.8,66.9,62.3,67.3,61.8,67.3z"/>
	<path display="inline" fill="#464646" d="M68.3,67.2c-0.5,0-1-0.3-1.1-0.9c-0.1-0.6,0.2-1.2,0.8-1.3c1-0.2,2-0.6,2.9-1
		c0.6-0.3,1.2,0,1.5,0.5c0.3,0.6,0,1.2-0.5,1.5c-1.1,0.5-2.2,0.9-3.3,1.2C68.5,67.2,68.4,67.2,68.3,67.2z"/>
	<path display="inline" fill="#464646" d="M53.6,62.2c-0.3,0-0.6-0.1-0.8-0.4c-0.8-0.9-1.4-1.8-2-2.9c-0.3-0.5-0.1-1.2,0.4-1.5
		c0.5-0.3,1.2-0.1,1.5,0.4c0.5,0.9,1.1,1.7,1.8,2.5c0.4,0.5,0.3,1.2-0.1,1.6C54.1,62.1,53.8,62.2,53.6,62.2z"/>
	<path display="inline" fill="#464646" d="M49.6,53.3c-0.6,0-1-0.4-1.1-1c-0.1-0.5-0.1-1-0.1-1.5c0-0.6,0-1.2-0.1-1.8
		c-0.1-0.6,0.4-1.2,1-1.2c0.6-0.1,1.2,0.4,1.2,1c0.1,0.7,0.1,1.3,0.1,2c0,0.4,0,0.8,0.1,1.3c0.1,0.6-0.4,1.2-1,1.2
		C49.7,53.3,49.7,53.3,49.6,53.3z"/>
	<path display="inline" fill="#464646" d="M20.7,44c-0.2,0-0.4,0-0.5-0.1c-0.5-0.3-0.8-1-0.5-1.5c0.5-1,1.2-2,2-2.9
		c0.4-0.5,1.1-0.5,1.6-0.1c0.5,0.4,0.5,1.1,0.1,1.6c-0.7,0.8-1.2,1.6-1.7,2.5C21.5,43.8,21.1,44,20.7,44z"/>
	<path display="inline" fill="#464646" d="M47.6,43.7c-0.4,0-0.8-0.2-1-0.6c-0.5-0.9-1.1-1.7-1.7-2.5c-0.4-0.5-0.4-1.2,0.1-1.6
		c0.5-0.4,1.2-0.4,1.6,0.1c0.8,0.9,1.5,1.9,2,2.9c0.3,0.5,0.1,1.2-0.4,1.5C48,43.7,47.8,43.7,47.6,43.7z"/>
	<path display="inline" fill="#464646" d="M27.7,37.3c-0.4,0-0.8-0.2-1-0.6c-0.3-0.6,0-1.2,0.5-1.5c1.1-0.5,2.2-0.9,3.3-1.2
		c0.6-0.1,1.2,0.2,1.3,0.8c0.1,0.6-0.2,1.2-0.8,1.3c-1,0.2-2,0.6-2.9,1C28,37.2,27.9,37.3,27.7,37.3z"/>
	<path display="inline" fill="#464646" d="M40.4,37.2c-0.2,0-0.3,0-0.5-0.1c-0.9-0.4-1.9-0.8-2.9-1c-0.6-0.1-1-0.7-0.8-1.3
		c0.1-0.6,0.7-1,1.3-0.8c1.1,0.3,2.3,0.6,3.3,1.1c0.6,0.3,0.8,0.9,0.6,1.5C41.3,37,40.9,37.2,40.4,37.2z"/>
</g>
<g id="beacon">
	<circle fill="#FF4000" cx="50.4" cy="75.9" r="7.4"/>
	<path fill="none" stroke="#464646" stroke-width="3" stroke-linecap="round" stroke-miterlimit="10" d="M69.6,68.4
		c-2.8-7.8-10.3-13.5-19.2-13.5S34,60.5,31.2,68.4"/>
	<path fill="none" stroke="#464646" stroke-width="3" stroke-linecap="round" stroke-miterlimit="10" d="M78.7,55.8
		C74.5,44.3,63.4,36,50.4,36s-24.1,8.3-28.3,19.8"/>
	<path fill="none" stroke="#464646" stroke-width="3" stroke-linecap="round" stroke-miterlimit="10" d="M86.4,44.2
		c-5.3-14.8-19.4-25.3-36-25.3s-30.7,10.5-36,25.3"/>
</g>
<g id="designoptions" display="none">
	<path id="pensil" display="inline" fill="#464646" d="M83.6,30l-6.4-4c-1.6-1-3.7-0.5-4.7,1.1l-2.5,4l12.2,7.7l2.5-4
		C85.7,33.1,85.3,31,83.6,30z M48.3,65.6l12.2,7.7l19.9-31.6L68.2,34L48.3,65.6z M46.5,75.3l-0.3,7.2l6.4-3.4l5.9-3.1l-11.8-7.4
		L46.5,75.3z"/>
	<path display="inline" fill="#FF4000" d="M58.6,30.5l-1.1-3.9c0-0.2-0.2-0.3-0.3-0.4c-0.2-0.1-0.3-0.1-0.5-0.1l-1.8,0.5
		c-0.6-1.3-1.4-2.4-2.4-3.3l1-1.7c0.2-0.3,0.1-0.8-0.3-0.9l-3.5-2c-0.2-0.1-0.3-0.1-0.5-0.1c-0.2,0-0.3,0.2-0.4,0.3l-0.9,1.6
		c-1.3-0.5-2.7-0.6-4.1-0.7L43.3,18c-0.1-0.4-0.5-0.6-0.8-0.5l-3.9,1.1c-0.4,0.1-0.6,0.5-0.5,0.8l0.5,1.7c-1.3,0.6-2.4,1.5-3.4,2.5
		l-1.6-0.9c-0.3-0.2-0.8-0.1-0.9,0.3l-2,3.5c-0.1,0.2-0.1,0.3-0.1,0.5c0,0.2,0.2,0.3,0.3,0.4l1.6,0.9c-0.4,1.3-0.6,2.7-0.6,4.1
		l-1.9,0.5c-0.4,0.1-0.6,0.5-0.5,0.9l1.1,3.9c0.1,0.2,0.2,0.3,0.3,0.4c0.2,0.1,0.4,0.1,0.5,0.1l1.9-0.5c0.6,1.2,1.4,2.3,2.4,3.2
		l-1,1.8c-0.2,0.3-0.1,0.8,0.3,0.9l3.5,2c0.2,0.1,0.3,0.1,0.5,0.1c0.2,0,0.3-0.2,0.4-0.3l1-1.8c1.3,0.4,2.6,0.6,3.9,0.6l0.6,2.1
		c0.1,0.3,0.4,0.5,0.7,0.5c0.1,0,0.1,0,0.2,0l3.9-1c0.2,0,0.3-0.2,0.4-0.3C50,45.2,50,45,50,44.8l-0.5-2c1.2-0.6,2.3-1.4,3.2-2.3
		l1.9,1.1c0.3,0.2,0.7,0.1,0.9-0.3l2-3.5c0.1-0.2,0.1-0.3,0.1-0.5c0-0.2-0.2-0.3-0.3-0.4l-1.7-1c0.4-1.3,0.7-2.6,0.7-4l2-0.5
		C58.5,31.2,58.7,30.9,58.6,30.5z M48.3,34.4c-0.7,1.2-1.7,2-3,2.3C44.9,36.9,44.4,37,44,37c-2.3,0-4.2-1.5-4.8-3.7
		c-0.7-2.7,0.9-5.4,3.5-6.1C43.1,27,43.5,27,44,27c2.2,0,4.2,1.5,4.8,3.7C49.2,31.9,49,33.3,48.3,34.4z"/>
	<path display="inline" fill="#FF4000" d="M33.2,57.5l-0.6-2.4c0-0.1-0.1-0.2-0.2-0.3c-0.1-0.1-0.2-0.1-0.3,0l-1.1,0.3
		c-0.4-0.8-0.9-1.4-1.5-2l0.6-1c0.1-0.2,0-0.5-0.2-0.6l-2.1-1.2c-0.1-0.1-0.2-0.1-0.3,0c-0.1,0-0.2,0.1-0.3,0.2l-0.5,1
		c-0.8-0.3-1.7-0.4-2.5-0.4l-0.3-1.1c-0.1-0.2-0.3-0.4-0.5-0.3l-2.4,0.6c-0.2,0.1-0.4,0.3-0.3,0.5l0.3,1.1c-0.8,0.4-1.5,0.9-2.1,1.5
		l-1-0.6c-0.2-0.1-0.5,0-0.6,0.2L16,55c-0.1,0.1-0.1,0.2,0,0.3c0,0.1,0.1,0.2,0.2,0.3l1,0.6c-0.3,0.8-0.4,1.6-0.4,2.5L15.6,59
		c-0.2,0.1-0.4,0.3-0.3,0.5l0.6,2.4c0,0.1,0.1,0.2,0.2,0.3c0.1,0.1,0.2,0.1,0.3,0l1.1-0.3c0.4,0.7,0.9,1.4,1.5,2l-0.6,1.1
		c-0.1,0.2,0,0.5,0.2,0.6l2.1,1.2c0.1,0.1,0.2,0.1,0.3,0c0.1,0,0.2-0.1,0.3-0.2l0.6-1.1c0.8,0.3,1.6,0.4,2.4,0.4l0.3,1.3
		c0.1,0.2,0.2,0.3,0.4,0.3c0,0,0.1,0,0.1,0l2.4-0.6c0.1,0,0.2-0.1,0.3-0.2c0.1-0.1,0.1-0.2,0-0.3L27.5,65c0.7-0.4,1.4-0.8,2-1.4
		l1.1,0.7c0.2,0.1,0.5,0,0.6-0.2l1.2-2.1c0.1-0.1,0.1-0.2,0-0.3c0-0.1-0.1-0.2-0.2-0.3l-1.1-0.6c0.3-0.8,0.4-1.6,0.4-2.4l1.2-0.3
		C33.1,58,33.2,57.7,33.2,57.5z M26.9,59.9c-0.4,0.7-1.1,1.2-1.9,1.4c-0.3,0.1-0.5,0.1-0.8,0.1c-1.4,0-2.6-0.9-3-2.3
		c-0.4-1.6,0.5-3.3,2.2-3.8c0.3-0.1,0.5-0.1,0.8-0.1c1.4,0,2.6,0.9,2.9,2.3C27.4,58.4,27.3,59.2,26.9,59.9z"/>
</g>
<g id="content_safey" display="none">
	<circle display="inline" fill="#FF4000" cx="67.2" cy="73.2" r="12.8"/>
	<path display="inline" fill="none" stroke="#464646" stroke-width="3" stroke-linecap="round" stroke-miterlimit="10" d="
		M73.4,59.2c1.3-6.9,1-12.7,1-13.1c0,0,0.2,0,0.2,0V25.3c0-0.3-0.4-0.6-0.7-0.6c-18.6-0.1-24.5-5-26.2-7.6c-0.2-0.4-0.8-0.3-1,0
		c-1.6,2.7-7.1,7.5-25.6,7.6c-0.3,0-0.5,0.2-0.5,0.6v20.8c0,0-0.1,0-0.1,0c-0.1,1-2.9,37.1,26.7,37.2c2.9,0,5.5-0.4,7.8-1
		 M51.5,50.2v18.9c0,0.5-0.5,0.9-0.9,1.2L45,74.2c-1,0.7-2.5,0-2.5-1.2V50.2c0-0.4-0.1-0.8-0.4-1L30.4,36.3c-0.9-1-0.2-2.8,1.1-2.8
		H63c1.3,0,2,1.9,1.1,2.8L51.7,49.1C51.4,49.3,51.5,49.8,51.5,50.2z"/>
	<g display="inline">
		<path fill="#FFFFFF" d="M71.7,71.4v-2.2c0-2.5-2-4.5-4.5-4.5c-2.5,0-4.5,2-4.5,4.5v2.2c-0.8,0-1.5,0.7-1.5,1.5v7.5
			c0,0.8,0.7,1.5,1.5,1.5h9c0.8,0,1.5-0.7,1.5-1.5v-7.5C73.2,72,72.5,71.4,71.7,71.4L71.7,71.4z M64.2,69.1c0-1.7,1.3-3,3-3
			c1.7,0,3,1.3,3,3v2.2h-6V69.1z M71.7,80.4h-9v-7.5h9V80.4z M66.4,77.2v1c0,0.4,0.3,0.7,0.8,0.7c0.4,0,0.7-0.3,0.7-0.7v-1
			c0.4-0.3,0.8-0.7,0.8-1.3c0-0.8-0.7-1.5-1.5-1.5c-0.8,0-1.5,0.7-1.5,1.5C65.7,76.4,66,76.9,66.4,77.2L66.4,77.2z M66.4,77.2"/>
	</g>
</g>
<g id="log_in" display="none">
	<path display="inline" fill="none" stroke="#464646" stroke-width="2.3539" stroke-linecap="round" stroke-miterlimit="10" d="
		M24.5,45.8c10.5-11.7,11.2-33.7,36.7-29c24,4.4,16.8,34.7,18.3,42.7"/>
	
		<path display="inline" fill="none" stroke="#464646" stroke-width="2.3539" stroke-linecap="round" stroke-linejoin="round" stroke-miterlimit="10" d="
		M56.2,71.7c1.8-2.5,3.8-3.9,4.7-7c1.5,5.7,1.2,10,5.9,14.6"/>
	<path display="inline" fill="none" stroke="#FBB03B" stroke-width="0.7846" stroke-linecap="round" stroke-miterlimit="10" d="
		M41.8,83.5c2.8-1.3,5.4-3,7.7-5"/>
	<path display="inline" fill="none" stroke="#464646" stroke-width="2.3539" stroke-linecap="round" stroke-miterlimit="10" d="
		M51.7,83.7c0,0,5.5-3.4,7.1-6.5c0.1-0.1,0.3-0.1,0.3,0c0.2,0.8,0.9,2.3,2.9,3.7"/>
	<circle display="inline" fill="#FF4000" cx="37.1" cy="68.2" r="16.7"/>
	<g display="inline">
		<path fill="none" stroke="#464646" stroke-width="2.3539" stroke-linecap="round" stroke-miterlimit="10" d="M28.8,50.7"/>
		<path fill="none" stroke="#464646" stroke-width="2.3539" stroke-linecap="round" stroke-miterlimit="10" d="M24.7,54.9"/>
		<path fill="none" stroke="#464646" stroke-width="2.3539" stroke-linecap="round" stroke-miterlimit="10" d="M28.8,50.7
			c15.5-17.1,12.5-31.3,30.9-28.6c22.3,3.3,6.9,33.9,17.1,44.4"/>
		<path fill="none" stroke="#464646" stroke-width="2.3539" stroke-linecap="round" stroke-miterlimit="10" d="M26.2,61.9"/>
		<path fill="none" stroke="#464646" stroke-width="2.3539" stroke-linecap="round" stroke-miterlimit="10" d="M38.8,48.9"/>
		<path fill="none" stroke="#464646" stroke-width="2.3539" stroke-linecap="round" stroke-miterlimit="10" d="M38.8,48.9
			c7.1-11.3,8.4-22.3,19.5-20.5c12.4,1.9,6.9,14.4,6.6,26c-0.2,8.1,2.4,15.3,6.5,18.8"/>
		<path fill="none" stroke="#464646" stroke-width="2.3539" stroke-linecap="round" stroke-miterlimit="10" d="M29.7,67.9"/>
		<path fill="none" stroke="#464646" stroke-width="2.3539" stroke-linecap="round" stroke-miterlimit="10" d="M44.7,50.3"/>
		<path fill="none" stroke="#464646" stroke-width="2.3539" stroke-linecap="round" stroke-miterlimit="10" d="M55,60.7"/>
		<path fill="none" stroke="#464646" stroke-width="2.3539" stroke-linecap="round" stroke-miterlimit="10" d="M37,78.4"/>
		<path fill="none" stroke="#464646" stroke-width="2.3539" stroke-linecap="round" stroke-miterlimit="10" d="M44.7,50.3
			c1.3-2.8,2.5-5.9,3.7-9.6c3.4-10.3,14.5-5.7,12.9,2.2c-1,4.8-5.2,9.3-3.3,18.2"/>
		<path fill="none" stroke="#464646" stroke-width="2.3539" stroke-linecap="round" stroke-miterlimit="10" d="M32.7,73.3"/>
		<path fill="none" stroke="#464646" stroke-width="2.3539" stroke-linecap="round" stroke-miterlimit="10" d="M50.7,54.4"/>
		<path fill="none" stroke="#464646" stroke-width="2.3539" stroke-linecap="round" stroke-miterlimit="10" d="M50.7,54.4
			c1.6-3.5,3-7.5,4.1-12.3"/>
		<path fill="none" stroke="#464646" stroke-width="2.3539" stroke-linecap="round" stroke-miterlimit="10" d="M44.7,50.3"/>
		<path fill="none" stroke="#464646" stroke-width="2.3539" stroke-linecap="round" stroke-miterlimit="10" d="M50.7,54.4"/>
		<path fill="none" stroke="#464646" stroke-width="2.3539" stroke-linecap="round" stroke-miterlimit="10" d="M38.8,48.9"/>
		<path fill="none" stroke="#464646" stroke-width="2.3539" stroke-linecap="round" stroke-miterlimit="10" d="M44.7,50.3"/>
		<path fill="none" stroke="#464646" stroke-width="2.3539" stroke-linecap="round" stroke-miterlimit="10" d="M28.8,50.7"/>
		<path fill="none" stroke="#464646" stroke-width="2.3539" stroke-linecap="round" stroke-miterlimit="10" d="M38.8,48.9"/>
	</g>
	<path display="inline" fill="#FFFFFF" stroke="#FFFFFF" stroke-width="0.646" stroke-miterlimit="10" d="M44.3,76.7h-8.7
		c-0.2,0-0.3-0.1-0.3-0.3l0,0c0-0.2,0.1-0.3,0.3-0.3H44c0.2,0,0.4-0.2,0.4-0.4V60.2c0-0.1-0.1-0.2-0.2-0.2h-8.6
		c-0.2,0-0.3-0.1-0.3-0.3l0,0c0-0.2,0.1-0.3,0.3-0.3h8.7c0.4,0,0.7,0.3,0.7,0.7V76C45,76.4,44.7,76.7,44.3,76.7z"/>
	<path display="inline" fill="#FFFFFF" d="M40,67.6l-4.7-4.4c-0.3-0.2-0.7-0.2-0.9,0v0c-0.2,0.3-0.2,0.5,0,0.7l3.5,3h-9
		c-0.4,0-0.7,0.2-0.6,0.6c0,0.3,0.4,0.4,0.7,0.4h9l-3.5,3.6c-0.3,0.2-0.3,0.8,0,1.1c0.2,0.3,0.7,0.4,0.9,0.1l4.7-4.3
		C40.3,68.2,40.3,67.8,40,67.6z"/>
</g>
<g id="couponing_1_" display="none">
	<circle display="inline" fill="#FF4000" cx="50.1" cy="55.5" r="23.5"/>
	<g display="inline">
		<path fill="#FFFFFF" d="M38.6,46.6c0-1.5,0.5-2.7,1.4-3.7s2.2-1.5,3.8-1.5s2.9,0.5,3.8,1.5c1,1,1.4,2.3,1.4,3.7v1.3
			c0,1.5-0.5,2.7-1.4,3.7s-2.2,1.5-3.8,1.5c-1.6,0-2.9-0.5-3.9-1.5s-1.4-2.2-1.4-3.7V46.6z M41.1,47.9c0,0.9,0.2,1.6,0.7,2.2
			c0.5,0.6,1.2,0.9,2,0.9c0.9,0,1.5-0.3,2-0.9c0.5-0.6,0.7-1.3,0.7-2.2v-1.3c0-0.9-0.2-1.6-0.7-2.2s-1.1-0.9-2-0.9
			c-0.9,0-1.5,0.3-2,0.9c-0.5,0.6-0.7,1.3-0.7,2.2V47.9z M44.8,65.2l-1.9-1.2l12.4-19.9l1.9,1.2L44.8,65.2z M50.9,60.9
			c0-1.5,0.5-2.7,1.4-3.7s2.2-1.5,3.8-1.5c1.6,0,2.9,0.5,3.8,1.5s1.4,2.3,1.4,3.7v1.4c0,1.5-0.5,2.7-1.4,3.7s-2.2,1.5-3.8,1.5
			c-1.6,0-2.9-0.5-3.9-1.5s-1.4-2.2-1.4-3.7V60.9z M53.5,62.3c0,0.9,0.2,1.6,0.7,2.2s1.2,0.9,2,0.9c0.9,0,1.5-0.3,2-0.9
			s0.7-1.3,0.7-2.2v-1.4c0-0.9-0.2-1.6-0.7-2.2c-0.5-0.6-1.1-0.9-2-0.9c-0.9,0-1.5,0.3-2,0.9c-0.5,0.6-0.7,1.3-0.7,2.2V62.3z"/>
	</g>
	<g id="Your_Icon_1_" display="inline">
		<path fill="#464646" d="M68.8,25.9c0,0-1.6-2.5-7.1-1.4l-4.9,1.1l-2.1-3.3l0,0c-0.2-0.2-0.4-0.4-0.6-0.4l-0.6-0.1
			c0.5-0.6,0.9-1.3,1.1-2.1c0.2-1.1,0-2.3-0.6-3.3c-0.6-1-1.6-1.7-2.7-1.9c-2.4-0.5-4.7,1-5.2,3.3c-0.2,1.1,0,2.3,0.6,3.3
			c0.6,1,1.6,1.7,2.7,1.9l3.8,0.8l1.3,2.3l-2.6,0.6l-3.2-2.2c-1-0.7-2.1-0.9-3.3-0.7c-1.2,0.2-2.2,0.8-2.8,1.8c-1.4,2-0.9,4.7,1,6.1
			c1,0.7,2.1,0.9,3.3,0.7c1.2-0.2,2.2-0.8,2.8-1.8c0.5-0.7,0.7-1.4,0.8-2.2l0.5,0.3c0.2,0.1,0.5,0.2,0.7,0.2l0.1,0l3.8-0.6l2.5-0.4
			L68.8,25.9L68.8,25.9z M52.4,19.2c-0.3,1.2-1.5,2-2.7,1.7l0,0l0,0c-0.6-0.1-1.1-0.5-1.4-1c-0.3-0.5-0.4-1.1-0.3-1.7
			c0.3-1.2,1.5-2,2.7-1.7c0.6,0.1,1.1,0.5,1.4,1C52.4,18,52.5,18.6,52.4,19.2z M48,29.2c-0.3,0.5-0.9,0.8-1.5,0.9
			c-0.6,0.1-1.2,0-1.7-0.4c-1-0.7-1.2-2.1-0.5-3.1c0.3-0.5,0.9-0.8,1.5-0.9c0.6-0.1,1.2,0,1.7,0.4l0,0l0,0
			C48.4,26.8,48.7,28.2,48,29.2z"/>
		<path fill="#464646" d="M56.4,29.5l1.7,3c3,4.8,5.9,4.3,5.9,4.3l-5-7.7L56.4,29.5z"/>
	</g>
	<path display="inline" fill="#464646" d="M51.9,85.4c-0.6,0-1.1-0.5-1.1-1.1c0-0.6,0.4-1.2,1.1-1.2c1.1-0.1,2.2-0.2,3.2-0.4
		c0.6-0.1,1.2,0.3,1.3,0.9c0.1,0.6-0.3,1.2-0.9,1.3C54.3,85.2,53.2,85.3,51.9,85.4C52,85.4,52,85.4,51.9,85.4z"/>
	<path display="inline" fill="#464646" d="M45.2,85c-0.1,0-0.1,0-0.2,0c-1.2-0.2-2.3-0.5-3.4-0.8c-0.6-0.2-1-0.8-0.8-1.4
		c0.2-0.6,0.8-1,1.4-0.8c1,0.3,2.1,0.6,3.2,0.7c0.6,0.1,1,0.7,0.9,1.3C46.3,84.6,45.8,85,45.2,85z"/>
	<path display="inline" fill="#464646" d="M61.7,83c-0.4,0-0.9-0.3-1.1-0.7c-0.3-0.6,0-1.3,0.6-1.5c1-0.4,2-0.9,2.9-1.5
		c0.6-0.3,1.3-0.1,1.6,0.4c0.3,0.6,0.1,1.3-0.4,1.6c-1,0.6-2.1,1.1-3.1,1.6C62,83,61.9,83,61.7,83z"/>
	<path display="inline" fill="#464646" d="M35.7,81.6c-0.2,0-0.4,0-0.6-0.2c-1-0.6-2-1.2-2.9-1.9c-0.5-0.4-0.6-1.1-0.2-1.6
		c0.4-0.5,1.1-0.6,1.6-0.2c0.9,0.6,1.8,1.2,2.7,1.8c0.6,0.3,0.7,1,0.4,1.6C36.5,81.3,36.1,81.6,35.7,81.6z"/>
	<path display="inline" fill="#464646" d="M70.1,77.5c-0.3,0-0.6-0.1-0.8-0.4c-0.4-0.5-0.4-1.2,0-1.6c0.8-0.7,1.5-1.5,2.2-2.4
		c0.4-0.5,1.1-0.5,1.6-0.1c0.5,0.4,0.6,1.1,0.1,1.6c-0.7,0.9-1.6,1.8-2.4,2.6C70.7,77.4,70.4,77.5,70.1,77.5z"/>
	<path display="inline" fill="#464646" d="M28,75.1c-0.3,0-0.7-0.1-0.9-0.4c-0.7-0.9-1.5-1.8-2.1-2.8c-0.4-0.5-0.2-1.2,0.3-1.6
		c0.5-0.4,1.2-0.2,1.6,0.3c0.6,0.9,1.2,1.8,1.9,2.6c0.4,0.5,0.3,1.2-0.1,1.6C28.6,75,28.3,75.1,28,75.1z"/>
	<path display="inline" fill="#464646" d="M76.2,69.4c-0.2,0-0.4,0-0.5-0.1c-0.6-0.3-0.8-1-0.5-1.5c0.5-1,0.9-2,1.3-3
		c0.2-0.6,0.9-0.9,1.5-0.7c0.6,0.2,0.9,0.9,0.7,1.5c-0.4,1.1-0.9,2.2-1.4,3.2C77,69.2,76.6,69.4,76.2,69.4z"/>
	<path display="inline" fill="#464646" d="M23,66.4c-0.5,0-0.9-0.3-1.1-0.8c-0.4-1.1-0.7-2.2-1-3.4c-0.1-0.6,0.2-1.2,0.9-1.4
		c0.6-0.2,1.2,0.2,1.4,0.9c0.2,1,0.6,2.1,0.9,3.1c0.2,0.6-0.1,1.3-0.7,1.5C23.2,66.4,23.1,66.4,23,66.4z"/>
	<path display="inline" fill="#464646" d="M79,59.8c0,0-0.1,0-0.1,0c-0.6-0.1-1.1-0.6-1-1.3c0.1-1.1,0.2-2.2,0.2-3.2
		c0-0.6,0.3-1.2,1-1.2c0.6,0,1,0.5,1,1.1v0.1c0,1.2,0.1,2.3,0,3.5C79.9,59.3,79.6,59.8,79,59.8z"/>
	<path display="inline" fill="#464646" d="M20.7,56.4C20,56.4,19,56,19,55.3v-0.1c0-1.1,0.6-2.3,0.7-3.4c0.1-0.6,0.9-1.1,1.5-1
		c0.6,0.1,1.2,0.6,1.1,1.3c-0.1,1.1-0.4,2.1-0.4,3.2C22,55.9,21.3,56.4,20.7,56.4z"/>
	<path display="inline" fill="#464646" d="M78.4,49.6c-0.5,0-1-0.4-1.1-0.9c-0.2-1-0.6-2.1-0.9-3.1c-0.2-0.6,0.1-1.3,0.7-1.5
		c0.6-0.2,1.3,0.1,1.5,0.7c0.4,1.1,0.7,2.2,1,3.4c0.1,0.6-0.2,1.2-0.9,1.4C78.6,49.6,78.5,49.6,78.4,49.6z"/>
	<path display="inline" fill="#464646" d="M22.9,46.5c-0.1,0-0.3,0-0.4-0.1c-0.6-0.2-0.9-0.9-0.7-1.5c0.4-1.1,0.9-2.2,1.4-3.2
		c0.3-0.6,1-0.8,1.5-0.5c0.6,0.3,0.8,1,0.5,1.5c-0.5,1-0.9,2-1.3,3C23.8,46.3,23.4,46.5,22.9,46.5z"/>
	<path display="inline" fill="#464646" d="M74.4,40.4c-0.4,0-0.7-0.2-1-0.5c-0.6-0.9-1.2-1.8-1.9-2.6c-0.4-0.5-0.4-1.2,0.1-1.6
		c0.5-0.4,1.2-0.4,1.6,0.1c0.8,0.9,1.5,1.8,2.1,2.8c0.4,0.5,0.2,1.2-0.3,1.6C74.8,40.3,74.6,40.4,74.4,40.4z"/>
	<path display="inline" fill="#464646" d="M28,37.8c-0.3,0-0.5-0.1-0.7-0.3c-0.5-0.4-0.6-1.1-0.1-1.6c0.7-0.9,1.6-1.8,2.4-2.6
		c0.5-0.4,1.2-0.4,1.6,0c0.4,0.5,0.4,1.2,0,1.6c-0.8,0.7-1.5,1.5-2.2,2.4C28.6,37.7,28.3,37.8,28,37.8z"/>
	<path display="inline" fill="#464646" d="M67.5,33.1c-0.2,0-0.5-0.1-0.7-0.2c-0.9-0.6-1.8-1.2-2.7-1.8c-0.6-0.3-0.7-1-0.4-1.6
		s1-0.7,1.6-0.4c1,0.6,2,1.2,2.9,1.9c0.5,0.4,0.6,1.1,0.2,1.6C68.2,32.9,67.8,33.1,67.5,33.1z"/>
	<path display="inline" fill="#464646" d="M35.7,31.3c-0.4,0-0.8-0.2-1-0.6c-0.3-0.5-0.1-1.3,0.4-1.6c1-0.6,2.1-1.1,3.1-1.6
		c0.6-0.3,1.3,0,1.5,0.6c0.3,0.6,0,1.3-0.6,1.5c-1,0.4-2,0.9-2.9,1.5C36,31.3,35.9,31.3,35.7,31.3z"/>
</g>
</svg>
