<?xml version="1.0" encoding="utf-8"?>
<!-- Generator: Adobe Illustrator 18.1.1, SVG Export Plug-In . SVG Version: 6.00 Build 0)  -->
<svg version="1.1" id="Ebene_1" xmlns="http://www.w3.org/2000/svg" xmlns:xlink="http://www.w3.org/1999/xlink" x="0px" y="0px"
	 viewBox="0 0 293.2 273.2" enable-background="new 0 0 293.2 273.2" xml:space="preserve">
<path fill="#FFFFFF" d="M293.2,136.6l-21.3-18.9C262.6,51.2,205.6,0,136.6,0C61.2,0,0,61.2,0,136.6s61.2,136.6,136.6,136.6
	c69,0,126-51.2,135.3-117.6L293.2,136.6z"/>
<g>
	<rect x="63.5" y="81" fill="#FFFFFF" width="146.7" height="83.4"/>
	<path fill="#464646" d="M212.9,175.8H59.1c-1.1,0-1.9-0.9-1.9-1.9V78.2c0-1.1,0.9-1.9,1.9-1.9h153.8c1.1,0,1.9,0.9,1.9,1.9v95.6
		C214.9,174.9,214,175.8,212.9,175.8z M67.1,161h137.7c1.1,0,1.9-0.9,1.9-1.9V86.3c0-1.1-0.9-1.9-1.9-1.9H67.1
		c-1.1,0-1.9,0.9-1.9,1.9V159C65.2,160.1,66.1,161,67.1,161z"/>
	<path fill="#464646" d="M157.7,180.5h-43.3c-2.2,0-4.2,0.9-5.7,2.4l-8.5,8.6c-1,1.9,0.3,4.2,2.5,4.2h66.7c2.2,0,3.6-2.3,2.5-4.2
		l-8.5-8.6C161.9,181.3,159.8,180.5,157.7,180.5z"/>
	<rect x="100.6" y="127.2" fill="#333333" width="9.8" height="18.3"/>
	<rect x="121.4" y="118.7" fill="#333333" width="9.8" height="26.9"/>
	<rect x="140.9" y="127.2" fill="#333333" width="9.8" height="18.3"/>
	<rect x="159.2" y="118.7" fill="#333333" width="9.8" height="26.9"/>
	<polygon fill="#FF4000" points="127.3,108.4 147.1,121 174.4,101.3 171.5,97.3 146.9,115.1 127.6,102.8 93.4,120.4 95.6,124.7 	"/>
	<polygon fill="#FF4000" points="167.9,95.7 177.1,95.5 175.8,104.6 	"/>
</g>
</svg>
