<?xml version="1.0" encoding="utf-8"?>
<!-- Generator: Adobe Illustrator 18.1.1, SVG Export Plug-In . SVG Version: 6.00 Build 0)  -->
<svg version="1.1" id="Ebene_1" xmlns="http://www.w3.org/2000/svg" xmlns:xlink="http://www.w3.org/1999/xlink" x="0px" y="0px"
	 viewBox="430.9 5.3 739.4 989" enable-background="new 430.9 5.3 739.4 989" xml:space="preserve">
<g>
	
		<image overflow="visible" enable-background="new    " width="167" height="165" xlink:href="B8095FC9A69E3729.jpeg"  transform="matrix(0.6327 0 0 0.6404 853.1129 339.7095)">
	</image>
</g>
<g>
	
		<image overflow="visible" enable-background="new    " width="144" height="144" xlink:href="B8095FC9A69E372B.jpeg"  transform="matrix(0.6264 0 0 0.6264 669.6373 350.2036)">
	</image>
</g>
<g id="bild_x5F_seite">
	<path fill="#FFFFFF" stroke="#99A5AA" stroke-width="1.4591" stroke-miterlimit="10" d="M431.7,770.9V9.9c0-2.1,1.7-3.9,3.9-3.9
		h729c2.1,0,3.9,1.7,3.9,3.9l0.8,760.9"/>
	<rect x="519.7" y="53.8" fill="none" width="569.3" height="408.3"/>
	<text transform="matrix(1 0 0 1 720.5771 127.6199)" fill="#3A3D3F" font-family="'Roboto-Medium'" font-size="98.3277">404</text>
	<text transform="matrix(1 0 0 1 680.0405 173.5262)" fill="#3A3D3F" font-family="'Roboto-Light'" font-size="38.2385">Seite entlaufen</text>
	<path fill="#FF4000" stroke="#DD2F00" stroke-width="2.0348" stroke-miterlimit="10" d="M960.8,612.8H648.1c-1.5,0-2.7-1.2-2.7-2.7
		v-11c0-1.5,1.2-2.7,2.7-2.7h312.9c1.5,0,2.7,1.2,2.7,2.7v11C963.5,611.5,962.3,612.8,960.8,612.8z"/>
	<path fill="#B5B5B5" d="M934.2,644H674.6c-0.8,0-1.3-0.5-1.3-1.3v-11.4c0-0.8,0.5-1.3,1.3-1.3h259.5c0.8,0,1.3,0.5,1.3,1.3v11.4
		C935.6,643.5,934.9,644,934.2,644z"/>
	<g>
		<g>
			<line fill="none" stroke="#938786" stroke-width="2" stroke-miterlimit="10" x1="464.6" y1="704.7" x2="479.3" y2="704.7"/>
			
				<line fill="none" stroke="#938786" stroke-width="2" stroke-miterlimit="10" stroke-dasharray="21,21" x1="507.5" y1="704.7" x2="1115.6" y2="704.7"/>
			<line fill="none" stroke="#938786" stroke-width="2" stroke-miterlimit="10" x1="1130.3" y1="704.7" x2="1145.1" y2="704.7"/>
		</g>
	</g>
	<polyline fill="#FFFFFF" stroke="#99A5AA" stroke-width="1.4591" stroke-miterlimit="10" points="849.4,738.7 849.4,993.6 
		750.8,993.6 750.8,738.7 	"/>
	<polyline fill="#FFFFFF" stroke="#99A5AA" stroke-width="1.4591" stroke-miterlimit="10" points="1009,738.7 1009,993.6 
		910.3,993.6 910.3,738.7 	"/>
	<polyline fill="#FFFFFF" stroke="#99A5AA" stroke-width="1.4591" stroke-miterlimit="10" points="1169.6,738.7 1169.6,993.6 
		1070.8,993.6 1070.8,738.7 	"/>
	<line fill="none" x1="684.7" y1="426.8" x2="841.7" y2="426.8"/>
	<line fill="none" x1="668.6" y1="469.8" x2="798.8" y2="469.8"/>
	<line fill="none" stroke="#F2F2F2" stroke-miterlimit="10" x1="668.6" y1="502.7" x2="798.8" y2="502.7"/>
	<line fill="none" stroke="#F2F2F2" stroke-miterlimit="10" x1="668.6" y1="526.8" x2="798.8" y2="526.8"/>
	
		<rect x="832.2" y="453.3" fill="#CFDEE5" stroke="#F2F2F2" stroke-width="2.0348" stroke-miterlimit="10" width="115" height="76.5"/>
	<line fill="none" stroke="#F2F2F2" stroke-miterlimit="10" x1="668.6" y1="548.3" x2="798.8" y2="548.3"/>
	<path fill="#ADDBDA" stroke="#99A5AA" stroke-width="2.0348" stroke-miterlimit="10" d="M1083.1,558.5H525.8
		c-1.5,0-2.7-1.2-2.7-2.7V200.7c0-1.5,1.2-2.7,2.7-2.7h557.3c1.5,0,2.7,1.2,2.7,2.7v355.2C1085.8,557.3,1084.6,558.5,1083.1,558.5z"
		/>
	<g>
		<polyline fill="#F2F2F2" stroke="#D1D1D1" stroke-width="2.0256" stroke-miterlimit="10" points="625.5,556.4 625.5,258.7 
			917.3,258.7 983.4,306 983.4,556.4 		"/>
		<polygon fill="#B5B5B5" points="917.3,258 917.3,305.9 983.4,305.9 		"/>
	</g>
	<g>
		<ellipse fill="#4C4545" cx="753" cy="327.8" rx="9.1" ry="21.2"/>
		<ellipse fill="#4C4545" cx="864.6" cy="326.2" rx="9.1" ry="21.2"/>
		<g>
			<g opacity="0.68">
				<defs>
					<filter id="Adobe_OpacityMaskFilter" filterUnits="userSpaceOnUse" x="672.3" y="352.9" width="84.6" height="84.6">
						<feColorMatrix  type="matrix" values="1 0 0 0 0  0 1 0 0 0  0 0 1 0 0  0 0 0 1 0"/>
					</filter>
				</defs>
				<mask maskUnits="userSpaceOnUse" x="672.3" y="352.9" width="84.6" height="84.6" id="SVGID_1_">
					<g filter="url(#Adobe_OpacityMaskFilter)">
						
							<image overflow="visible" enable-background="new    " width="144" height="144" xlink:href="B8095FC9A69E3729.jpeg"  transform="matrix(0.6264 0 0 0.6264 669.6373 350.2036)">
						</image>
					</g>
				</mask>
				<g mask="url(#SVGID_1_)">
					<g>
						<circle fill="#FFDAE9" cx="714.6" cy="395.2" r="42.3"/>
					</g>
				</g>
			</g>
			<g opacity="0.68">
				<defs>
					<filter id="Adobe_OpacityMaskFilter_1_" filterUnits="userSpaceOnUse" x="855.8" y="342.4" width="99.6" height="99.6">
						<feColorMatrix  type="matrix" values="1 0 0 0 0  0 1 0 0 0  0 0 1 0 0  0 0 0 1 0"/>
					</filter>
				</defs>
				<mask maskUnits="userSpaceOnUse" x="855.8" y="342.4" width="99.6" height="99.6" id="SVGID_3_">
					<g filter="url(#Adobe_OpacityMaskFilter_1_)">
						
							<image overflow="visible" enable-background="new    " width="167" height="165" xlink:href="B8095FC9A69E372F.jpeg"  transform="matrix(0.6327 0 0 0.6404 853.1129 339.7095)">
						</image>
					</g>
				</mask>
				<g mask="url(#SVGID_3_)">
					<g>
						<circle fill="#FFDAE9" cx="905.6" cy="392.2" r="49.8"/>
					</g>
				</g>
			</g>
			<g>
				<circle fill="#D1D1D1" cx="731.5" cy="383.4" r="5"/>
				<circle fill="#D1D1D1" cx="750.6" cy="386" r="5"/>
				<circle fill="#D1D1D1" cx="736.9" cy="397" r="5"/>
				<circle fill="#D1D1D1" cx="878.9" cy="383.4" r="5"/>
				<circle fill="#D1D1D1" cx="859.9" cy="386" r="5"/>
				<circle fill="#D1D1D1" cx="873.6" cy="397" r="5"/>
			</g>
		</g>
	</g>
	<rect x="666.6" y="453" fill="#CFDEE5" stroke="#F2F2F2" stroke-miterlimit="10" width="128.9" height="13.4"/>
	<rect x="666.6" y="473.2" fill="#CFDEE5" stroke="#F2F2F2" stroke-miterlimit="10" width="128.9" height="13.4"/>
	<rect x="666.6" y="496" fill="#CFDEE5" stroke="#F2F2F2" stroke-miterlimit="10" width="128.9" height="14.8"/>
	<rect x="666.6" y="517.4" fill="#CFDEE5" stroke="#F2F2F2" stroke-miterlimit="10" width="128.9" height="16.1"/>
	<rect x="666.6" y="541.6" fill="#CFDEE5" stroke="#F2F2F2" stroke-miterlimit="10" width="128.9" height="13.4"/>
	<rect x="814.2" y="451.7" fill="#CFDEE5" stroke="#F2F2F2" stroke-width="3" stroke-miterlimit="10" width="127.5" height="87.2"/>
	<polyline fill="#FFFFFF" stroke="#99A5AA" stroke-width="1.4591" stroke-miterlimit="10" points="530.3,738.7 530.3,993.6 
		431.7,993.6 431.7,738.7 	"/>
</g>
<g id="button">
</g>
</svg>
