<?xml version="1.0" encoding="utf-8"?>
<!-- Generator: Adobe Illustrator 18.1.1, SVG Export Plug-In . SVG Version: 6.00 Build 0)  -->
<!DOCTYPE svg PUBLIC "-//W3C//DTD SVG 1.1//EN" "http://www.w3.org/Graphics/SVG/1.1/DTD/svg11.dtd">
<svg version="1.1" id="Ebene_1" xmlns="http://www.w3.org/2000/svg" xmlns:xlink="http://www.w3.org/1999/xlink" x="0px" y="0px"
	 viewBox="0 0 782.7 118" enable-background="new 0 0 782.7 118" xml:space="preserve">
<path fill="#FF4000" d="M633.4,84.9c0-1.6-0.7-2.1-2.7-2.1h-2.1c-2.9,0-3.8,1-3.8,4.3c0,3.6,0.7,4.1,5,4.1c2.9,0,3.7-0.6,3.7-3.1
	V84.9z M639.9,92c0,3.5-5.5,3.4-11,3.4c-8.1,0-10.8-1.9-10.8-7.6c0-5.4,1.5-7.7,8.9-8.5l4.4-0.5c1.5-0.2,1.9-0.5,1.9-2.8
	c0-2.3-0.4-3.8-5.1-3.8c-2,0-4.3,0.2-5.9,0.6c-0.1,0-0.2,0.1-0.4,0.1c-0.9,0-1.7-0.6-1.7-2.4c0-3,4-3.7,8.7-3.7
	c8.2,0,11.1,2.3,11.1,9V92z"/>
<path fill="#FF4000" d="M653.7,93.5c0,1.6-1.8,1.9-3.4,1.9c-1.6,0-3.4-0.3-3.4-1.9V69c0-1.6,1.8-1.9,3.4-1.9c1.6,0,3.4,0.3,3.4,1.9
	V93.5z M650.3,56.5c3.3,0,3.9,0.6,3.9,3.2c0,3.1-0.8,3.5-3.9,3.5c-3.2,0-4-0.5-4-3.2C646.3,57.1,647.1,56.5,650.3,56.5"/>
<path fill="#FF4000" d="M674.5,72.3c-0.9,0-2-0.2-3.4-0.2c-3.2,0-3.5,0.5-3.5,2.4v19c0,1.6-1.8,1.9-3.4,1.9c-1.6,0-3.5-0.3-3.5-1.9
	V70.9c0-2.1,1.1-2.8,2.8-3.2c2.5-0.5,6.5-0.9,8.8-0.9c2.8,0,3.7,0.5,3.7,2.9C676.1,71.1,675.7,72.3,674.5,72.3"/>
<path fill="#FF4000" d="M695.4,74.9c0-2.7-0.5-3.1-4.2-3.1c-4.1,0-5.5,1.9-5.5,9.6c0,7.4,0.9,9,6.7,9c2.6,0,3-0.9,3-4V74.9z
	 M702.2,102.9c0,1.6-1.9,1.9-3.5,1.9c-1.6,0-3.3-0.3-3.3-1.9v-5.7c0-1.5-0.5-2-3.1-2c-10.8,0-13.7-3.5-13.7-13.8
	c0-10.8,4.2-14.5,14.1-14.5c3.2,0,5.6,0.2,7.4,0.5c1.4,0.3,2,1.1,2,2.7V102.9z"/>
<path fill="#FF4000" d="M719.4,71.8c-4.3,0-5.3,1.5-5.3,9.5c0,8.4,1.4,9.7,5.3,9.7c4.1,0,5.2-1.3,5.2-9.7
	C724.6,73.2,723.3,71.8,719.4,71.8 M719.5,66.7c8,0,12.1,4.2,12.1,14.1c0,12.1-5,15.2-12.2,15.2c-7.3,0-12.3-3.1-12.3-14.2
	C707.1,70.7,711.3,66.7,719.5,66.7"/>
<path fill="#FF4000" d="M748,71.8c-4.3,0-5.3,1.5-5.3,9.5c0,8.4,1.4,9.7,5.3,9.7c4.1,0,5.2-1.3,5.2-9.7
	C753.3,73.2,751.9,71.8,748,71.8 M748.1,66.7c8,0,12.1,4.2,12.1,14.1c0,12.1-5,15.2-12.2,15.2c-7.3,0-12.3-3.1-12.3-14.2
	C735.8,70.7,739.9,66.7,748.1,66.7"/>
<path fill="#7D868C" d="M81.6,98H68.4c-13,0-20.6-0.1-22.6-0.3C29,96.5,19,91.9,11.9,82.3c-5.5-7.7-8.4-18-8.4-30.3
	c0-17.7,5.1-31,14.6-38.4c7.5-5.7,19.4-9,33-9c17.1,0,31.2,5.1,38.4,14.3C95,25.7,99,39,99,50.9c0,12.2-3.5,22-10.9,30.6h16.5V98
	H81.6z M31.7,28.3c-3.6,4.9-5.5,12.2-5.5,21.8c0,9.9,1.4,17.3,4.6,22.5c4.1,6.7,10.9,9.7,20.6,9.7c10,0,16.8-3.3,20.7-10.6
	c2.8-5.2,4.1-12.1,4.1-21.3c0-8.8-2-16.4-5.7-21.7c-3.9-5.8-10.4-8.8-19.3-8.8C42.4,20.1,35.9,22.8,31.7,28.3"/>
<path fill="#7D868C" d="M191.8,94.3c-4.8,2.9-10.9,3.8-25.2,3.8h-48.5V81.5h44.1c7.7,0,11.9-0.7,14.3-2.2c3-1.8,4.8-4.9,4.8-8.5
	c0-4.3-2.3-7.9-6.2-9.9c-2-1-5.8-1.7-10.4-1.7h-17.8c-11.6,0-19.1-1.9-24.2-6.1c-5.8-4.9-9.1-12.4-9.1-20.5
	c0-11.8,6.8-22.1,16.8-25.5c4.3-1.5,9.4-1.9,20.7-1.9h47.8v16.6h-43.2c-9.1,0-9.9,0.1-12.9,0.8c-4.1,1-6.5,4.6-6.5,9.5
	c0,4.2,2,7.5,5.5,9c2.9,1.3,5.2,1.5,12.2,1.5h15.5c14.2,0,21.9,2.1,27.5,7.7c4.3,4.2,7.2,12.4,7.2,20.5
	C204.2,80.6,199.4,89.8,191.8,94.3"/>
<path fill="#7D868C" d="M258.8,98c-16.7,0-24.6-2.2-32.2-9.2c-8.3-7.7-12.8-20.5-12.8-37c0-20.9,7.7-36.3,21.3-42.4
	c5.5-2.5,15.1-4.2,24.5-4.2h32.8v16.6h-30.3c-9.6,0-16.4,2.5-20.6,7.5c-3.2,3.8-4.9,11.1-4.9,20.7c0,13.6,3,23.2,8.8,27.3
	c3.8,2.8,9.6,4.2,17.4,4.2h29.6V98H258.8z"/>
<path fill="#7D868C" d="M318.5,97.8l-2.2-5.1h-8.6l-2.2,5.1h-5.7l9.4-21.8h5.5l9.4,21.8H318.5z M312,81.3l-3.2,7.6h6.5L312,81.3z"/>
<path fill="#7D868C" d="M334.9,97.8c-3.5,0-5.3-0.4-7-1.7c-2.3-1.7-3.6-4.9-3.6-9.1c0-4.1,1.3-7.3,3.5-9.1c1.6-1.2,4-1.9,7.2-1.9
	h9.9v3.9h-9.4c-1.7,0-2.9,0.3-3.9,0.9c-1.5,1-2.1,2.8-2.1,5.8c0,2.7,0.6,5,1.6,6c0.9,0.9,2.3,1.3,4.6,1.3h4.4v-5.2h-6.3v-3.9H345
	v12.9H334.9z"/>
<g>
	<path fill="#FF4000" d="M579.3,38.5c1.8,0,3.7,0.5,5.4,1.4s3.1,2.3,4.1,4.1c1,1.8,1.5,3.6,1.5,5.5c0,1.9-0.5,3.7-1.5,5.5
		c-1,1.8-2.3,3.1-4.1,4.1c-1.7,1-3.6,1.5-5.5,1.5s-3.7-0.5-5.5-1.5c-1.7-1-3.1-2.3-4.1-4.1c-1-1.8-1.5-3.6-1.5-5.5
		c0-1.9,0.5-3.8,1.5-5.5c1-1.8,2.4-3.1,4.1-4.1S577.4,38.5,579.3,38.5z M579.3,40.3c-1.5,0-3.1,0.4-4.5,1.2
		c-1.5,0.8-2.6,1.9-3.4,3.4c-0.8,1.5-1.2,3-1.2,4.6c0,1.6,0.4,3.1,1.2,4.6s1.9,2.6,3.4,3.4c1.5,0.8,3,1.2,4.6,1.2
		c1.6,0,3.1-0.4,4.6-1.2c1.5-0.8,2.6-1.9,3.4-3.4c0.8-1.5,1.2-3,1.2-4.6c0-1.6-0.4-3.1-1.2-4.6c-0.8-1.5-2-2.6-3.4-3.4
		C582.3,40.7,580.8,40.3,579.3,40.3z M574.4,55.6V43.8h4.1c1.4,0,2.4,0.1,3,0.3s1.1,0.6,1.5,1.1c0.4,0.5,0.6,1.1,0.6,1.7
		c0,0.9-0.3,1.6-0.9,2.3c-0.6,0.6-1.4,1-2.5,1.1c0.4,0.2,0.8,0.4,1,0.6c0.5,0.5,1.1,1.2,1.8,2.3l1.4,2.3H582l-1.1-1.9
		c-0.8-1.5-1.5-2.4-2-2.8c-0.4-0.3-0.9-0.4-1.5-0.4h-1.1v5H574.4z M576.3,49h2.3c1.1,0,1.9-0.2,2.3-0.5c0.4-0.3,0.6-0.8,0.6-1.3
		c0-0.4-0.1-0.7-0.3-0.9c-0.2-0.3-0.5-0.5-0.8-0.6c-0.3-0.1-1-0.2-1.9-0.2h-2.2V49z"/>
</g>
<path fill="#FF4000" d="M459.7,91c3.1,2.1,5.9,3.7,8.5,4.7l-2,4.6c-3.6-1.3-7.2-3.4-10.8-6.2c-3.7,2.1-7.8,3.1-12.3,3.1
	c-4.5,0-8.7-1.1-12.4-3.3c-3.7-2.2-6.6-5.3-8.6-9.3c-2-4-3-8.5-3-13.4c0-5,1-9.5,3-13.5c2-4.1,4.9-7.2,8.6-9.3
	c3.7-2.1,7.9-3.2,12.5-3.2c4.6,0,8.8,1.1,12.6,3.3c3.7,2.2,6.6,5.3,8.5,9.3s2.9,8.4,2.9,13.4c0,4.1-0.6,7.9-1.9,11.2
	C464.1,85.7,462.2,88.5,459.7,91z M445,82.5c3.8,1.1,7,2.7,9.5,4.8c3.9-3.6,5.9-8.9,5.9-16.1c0-4.1-0.7-7.6-2.1-10.7
	s-3.4-5.4-6.1-7.1c-2.7-1.7-5.7-2.5-9-2.5c-5,0-9.1,1.7-12.3,5.1s-4.9,8.5-4.9,15.2c0,6.5,1.6,11.6,4.9,15.1s7.4,5.2,12.4,5.2
	c2.4,0,4.6-0.4,6.7-1.3c-2.1-1.3-4.3-2.3-6.6-2.9L445,82.5z"/>
<path fill="#FF4000" d="M474,80.2l6.3-0.5c0.3,2.5,1,4.6,2.1,6.2c1.1,1.6,2.8,2.9,5.1,3.9c2.3,1,4.9,1.5,7.7,1.5
	c2.5,0,4.8-0.4,6.7-1.1s3.4-1.8,4.3-3.1c0.9-1.3,1.4-2.7,1.4-4.3c0-1.6-0.5-3-1.4-4.1s-2.4-2.2-4.5-3c-1.3-0.5-4.3-1.3-9-2.5
	c-4.6-1.1-7.9-2.2-9.7-3.1c-2.4-1.3-4.2-2.8-5.4-4.7c-1.2-1.9-1.8-3.9-1.8-6.3c0-2.5,0.7-4.9,2.2-7.1s3.5-3.9,6.3-5
	c2.8-1.1,5.8-1.7,9.2-1.7c3.7,0,7,0.6,9.9,1.8c2.8,1.2,5,3,6.6,5.3c1.5,2.3,2.4,5,2.5,7.9l-6.4,0.5c-0.3-3.2-1.5-5.6-3.5-7.2
	c-2-1.6-4.9-2.4-8.8-2.4c-4,0-7,0.7-8.8,2.2c-1.8,1.5-2.8,3.3-2.8,5.3c0,1.8,0.7,3.3,2,4.5c1.3,1.2,4.6,2.4,10,3.6s9.1,2.3,11.1,3.2
	c2.9,1.3,5.1,3.1,6.5,5.1c1.4,2.1,2.1,4.5,2.1,7.2c0,2.7-0.8,5.2-2.3,7.6c-1.5,2.4-3.7,4.2-6.6,5.5c-2.9,1.3-6.1,2-9.7,2
	c-4.5,0-8.4-0.7-11.4-2c-3.1-1.3-5.5-3.3-7.2-6S474.1,83.6,474,80.2z"/>
<path fill="#FF4000" d="M558.9,78.7l6.7,1.7c-1.4,5.5-3.9,9.6-7.5,12.5c-3.6,2.9-8.1,4.3-13.3,4.3c-5.4,0-9.8-1.1-13.2-3.3
	s-6-5.4-7.8-9.6c-1.8-4.2-2.7-8.7-2.7-13.5c0-5.2,1-9.8,3-13.7s4.8-6.9,8.5-8.9c3.7-2,7.8-3,12.2-3c5,0,9.3,1.3,12.7,3.8
	c3.4,2.6,5.8,6.2,7.2,10.8l-6.5,1.5c-1.2-3.7-2.9-6.3-5.1-8c-2.2-1.7-5-2.5-8.4-2.5c-3.9,0-7.1,0.9-9.7,2.8
	c-2.6,1.9-4.4,4.3-5.5,7.5c-1.1,3.1-1.6,6.3-1.6,9.7c0,4.3,0.6,8,1.9,11.2c1.2,3.2,3.2,5.6,5.8,7.2s5.5,2.4,8.5,2.4
	c3.7,0,6.9-1.1,9.5-3.2C556.3,86.2,558,83,558.9,78.7z"/>
<path fill="#FF4000" d="M587.5,81.3v-6.2h19v6.2H587.5z"/>
</svg>
